<?xml version="1.0" standalone="no"?>
<!DOCTYPE svg PUBLIC "-//W3C//DTD SVG 20010904//EN"
  "http://www.w3.org/TR/2001/REC-SVG-20010904/DTD/svg10.dtd">
<svg class="dracula-logo" version="1.0" xmlns="http://www.w3.org/2000/svg"
  width="64.000000pt" height="64.000000pt" viewBox="0 0 64.000000 64.000000"
  preserveAspectRatio="xMidYMid meet">

  <g transform="translate(0.000000,64.000000) scale(0.100000,-0.100000)"
  fill="#e8e4eb" stroke="none">
  <path d="M117 487 c-23 -24 -54 -69 -69 -99 -26 -52 -55 -184 -43 -196 2 -3
  23 3 46 13 39 18 42 18 54 2 16 -22 24 -21 53 6 l24 22 20 -24 c16 -21 22 -23
  39 -13 17 11 22 7 46 -38 16 -27 30 -50 33 -50 3 0 17 23 33 50 24 45 29 49
  46 38 17 -10 23 -8 39 13 l20 24 24 -22 c29 -27 37 -28 53 -6 12 16 15 16 54
  -2 23 -10 44 -16 46 -13 12 12 -17 144 -43 196 -29 60 -102 142 -127 142 -10
  0 -15 -9 -15 -27 0 -29 -37 -113 -50 -113 -5 0 -16 21 -26 46 l-18 47 -18 -23
  -18 -22 -18 22 -18 23 -18 -47 c-10 -25 -21 -46 -26 -46 -13 0 -50 84 -50 113
  0 39 -24 34 -73 -16z"/>
  </g>
</svg>
